<svg width="500" height="500" xmlns="http://www.w3.org/2000/svg" xml:space="preserve" style="fill-rule:evenodd;clip-rule:evenodd;stroke-linecap:round;stroke-linejoin:round;stroke-miterlimit:1.5"><path d="M362.409 271.962v48.286c-.065 4.616 3.066 7.146 7.143 7.143h32.857M363.003 294.534h38.549" style="fill:none;stroke:#9fa3a3;stroke-width:5.09px" transform="translate(-2273.76 -1690.78) scale(6.53247)"/><path d="M348.215 267.128v-5.734c-.018-1.438.81-2.318 2.335-2.335l6.594-.015c4.617.023 9.749 8.002 9.749 8.002l-18.678.082Z" style="fill:#ffa000" transform="translate(-2271.89 -1687.98) scale(6.53247)"/><path d="M348.567 267.445c-.019-2.749 1.121-3.787 3.943-3.825h21.752c1.894-.023 2.957.831 2.884 2.883v12.617c.05 2.09-.653 3.227-2.241 3.241h-23.138c-2.175-.048-3.293-1.053-3.176-3.176l-.024-11.74Z" style="fill:url(#a);stroke:#ffa000;stroke-width:.04px" transform="matrix(6.85093 0 0 6.9322 -2385.577 -1798.445)"/><path d="M348.215 267.128v-5.734c-.018-1.438.81-2.318 2.335-2.335l6.594-.015c4.617.023 9.749 8.002 9.749 8.002l-18.678.082Z" style="fill:#ffa000" transform="translate(-1973.27 -1548.93) scale(6.53247)"/><path d="M348.567 267.445c-.019-2.749 1.121-3.787 3.943-3.825h21.752c1.894-.023 2.957.831 2.884 2.883v12.617c.05 2.09-.653 3.227-2.241 3.241h-23.138c-2.175-.048-3.293-1.053-3.176-3.176l-.024-11.74Z" style="fill:url(#b);stroke:#ffa000;stroke-width:.03px" transform="matrix(6.85093 0 0 6.9322 -2086.957 -1659.395)"/><g><path d="M348.215 267.128v-5.734c-.018-1.438.81-2.318 2.335-2.335l6.594-.015c4.617.023 9.749 8.002 9.749 8.002l-18.678.082Z" style="fill:#ffa000" transform="translate(-1972.33 -1351.09) scale(6.53247)"/><path d="M348.567 267.445c-.019-2.749 1.121-3.787 3.943-3.825h21.752c1.894-.023 2.957.831 2.884 2.883v12.617c.05 2.09-.653 3.227-2.241 3.241h-23.138c-2.175-.048-3.293-1.053-3.176-3.176l-.024-11.74Z" style="fill:url(#c);stroke:#ffa000;stroke-width:.03px" transform="matrix(6.85093 0 0 6.9322 -2086.017 -1461.555)"/></g><defs><linearGradient id="a" x1="0" y1="0" x2="1" y2="0" gradientUnits="userSpaceOnUse" gradientTransform="matrix(.0554 -18.6428 12.5231 .03635 362.76 282.292)"><stop offset="0" style="stop-color:#ffca28;stop-opacity:1"/><stop offset=".56" style="stop-color:#ffda6b;stop-opacity:1"/><stop offset="1" style="stop-color:#ffe187;stop-opacity:1"/></linearGradient><linearGradient id="b" x1="0" y1="0" x2="1" y2="0" gradientUnits="userSpaceOnUse" gradientTransform="matrix(.0554 -18.6428 12.5231 .03635 362.76 282.292)"><stop offset="0" style="stop-color:#ffca28;stop-opacity:1"/><stop offset=".56" style="stop-color:#ffda6b;stop-opacity:1"/><stop offset="1" style="stop-color:#ffe187;stop-opacity:1"/></linearGradient><linearGradient id="c" x1="0" y1="0" x2="1" y2="0" gradientUnits="userSpaceOnUse" gradientTransform="matrix(.0554 -18.6428 12.5231 .03635 362.76 282.292)"><stop offset="0" style="stop-color:#ffca28;stop-opacity:1"/><stop offset=".56" style="stop-color:#ffda6b;stop-opacity:1"/><stop offset="1" style="stop-color:#ffe187;stop-opacity:1"/></linearGradient></defs></svg>
